<svg width="23" height="24" viewBox="0 0 23 24" fill="none" xmlns="http://www.w3.org/2000/svg">
<path d="M9.25678 18.8989C11.3126 18.8989 13.3095 18.213 14.9314 16.9498L21.0501 23.0685C21.5072 23.51 22.2356 23.4973 22.677 23.0402C23.1076 22.5943 23.1076 21.8875 22.677 21.4416L16.5583 15.3229C19.6929 11.2878 18.9629 5.47561 14.9278 2.34099C10.8927 -0.793627 5.08059 -0.0636822 1.94597 3.97142C-1.18865 8.00652 -0.458702 13.8187 3.5764 16.9533C5.2009 18.2153 7.19966 18.8999 9.25678 18.8989ZM4.34043 4.73191C7.05568 2.01661 11.458 2.01656 14.1733 4.73181C16.8886 7.44706 16.8886 11.8494 14.1734 14.5647C11.4581 17.28 7.05583 17.28 4.34053 14.5648C4.34048 14.5647 4.34048 14.5647 4.34043 14.5647C1.62518 11.8692 1.60918 7.48295 4.30465 4.76769C4.31656 4.75573 4.32847 4.74382 4.34043 4.73191Z" fill="#AFAFAF"/>
</svg>
