<svg width="22" height="22" viewBox="0 0 22 22" fill="none" xmlns="http://www.w3.org/2000/svg">
<path d="M19.35 7.92309L18.9838 7.71936C18.9269 7.68773 18.8984 7.67185 18.871 7.6554C18.5979 7.49181 18.3679 7.26539 18.1999 6.99498C18.183 6.96777 18.1664 6.93965 18.1338 6.88326L18.1337 6.88304C18.1012 6.82672 18.0848 6.7984 18.0697 6.77014C17.919 6.48882 17.8379 6.17557 17.8331 5.85647C17.8326 5.82768 17.8331 5.79822 17.834 5.74538L17.8343 5.72633L17.8414 5.30933C17.8529 4.6233 17.8586 4.28033 17.7626 3.97278C17.6776 3.7007 17.5357 3.44986 17.3459 3.23718C17.1317 2.9972 16.8348 2.8261 16.2424 2.4847L16.2393 2.48293L15.7455 2.19837C15.1526 1.85674 14.8561 1.68599 14.5414 1.62085C14.2629 1.56322 13.9754 1.56553 13.698 1.62781C13.3851 1.69803 13.0926 1.87319 12.5086 2.22291L12.5041 2.22559L12.1503 2.43745C12.0943 2.47095 12.066 2.48766 12.038 2.50325C11.7597 2.65797 11.4485 2.74406 11.1303 2.75427C11.0982 2.7553 11.0656 2.7553 11.0004 2.7553H10.9995C10.9347 2.7553 10.9025 2.7553 10.8705 2.75427C10.5516 2.74402 10.2394 2.65754 9.96068 2.50218C9.93362 2.48709 9.90672 2.47094 9.85463 2.43967L9.84863 2.43606L9.49255 2.22229L9.48987 2.22068C8.9023 1.86794 8.60823 1.6914 8.29382 1.62085C8.01525 1.55835 7.72629 1.55625 7.44683 1.61463C7.13092 1.68061 6.83353 1.85319 6.239 2.19824L5.75134 2.48128C5.1599 2.82454 4.8646 2.9961 4.65124 3.23625C4.46248 3.44871 4.32109 3.69897 4.23664 3.97034C4.14119 4.27707 4.14657 4.619 4.15807 5.30274L4.16522 5.7274C4.1663 5.7917 4.16702 5.82388 4.16655 5.85551C4.16182 6.17525 4.0804 6.48918 3.92929 6.771C3.91434 6.79887 3.89824 6.82674 3.86608 6.88241C3.8339 6.93812 3.81783 6.96591 3.80114 6.9928C3.63242 7.26465 3.40094 7.49214 3.12613 7.65601C3.09895 7.67222 3.07104 7.6878 3.01476 7.719L2.65319 7.91936L2.65307 7.91943C2.05158 8.25276 1.7509 8.41939 1.5321 8.65678C1.33853 8.86681 1.19195 9.11589 1.10269 9.38721C1.00192 9.69351 1.0027 10.0369 1.00426 10.7229L1.00427 10.7256L1.00554 11.2877L1.00556 11.2938C1.0071 11.9729 1.00787 12.3134 1.1087 12.6171C1.19816 12.8866 1.344 13.1339 1.53649 13.3427C1.75383 13.5784 2.05212 13.7443 2.64782 14.0757L2.64977 14.0768L3.00811 14.2761L3.01309 14.2789C3.07079 14.311 3.10054 14.3275 3.12914 14.3448C3.40145 14.5087 3.63043 14.7353 3.79772 15.0056C3.81579 15.0348 3.83314 15.0651 3.86781 15.1257L3.86784 15.1257C3.9021 15.1856 3.91943 15.2155 3.93528 15.2455C4.08195 15.5232 4.16121 15.8315 4.16657 16.1455C4.16715 16.1794 4.16661 16.214 4.16544 16.283L4.15856 16.6905L4.15854 16.692C4.14697 17.3771 4.14119 17.7198 4.23713 18.0271C4.32208 18.2992 4.46438 18.55 4.65417 18.7627C4.86869 19.0031 5.1656 19.1745 5.76013 19.5171L6.25383 19.8016C6.84668 20.1432 7.14354 20.314 7.45828 20.3791C7.73673 20.4367 8.02419 20.4344 8.30163 20.3721C8.61457 20.3018 8.90718 20.1266 9.49174 19.7766L9.49548 19.7744L9.8493 19.5625C9.90528 19.529 9.93344 19.5123 9.96149 19.4967C10.2398 19.342 10.5508 19.2559 10.869 19.2457C10.9011 19.2446 10.9337 19.2446 10.9989 19.2446C11.0643 19.2446 11.0975 19.2446 11.1296 19.2457C11.4485 19.2559 11.7602 19.3423 12.0389 19.4977C12.067 19.5133 12.0952 19.5302 12.1512 19.5638L12.5073 19.7776L12.508 19.778C13.0969 20.1316 13.3913 20.3083 13.7061 20.379C13.9847 20.4415 14.2731 20.4437 14.5526 20.3853C14.8685 20.3193 15.1661 20.1468 15.7606 19.8017L16.2483 19.5187C16.8397 19.1754 17.1351 19.0038 17.3484 18.7637C17.5372 18.5512 17.6786 18.301 17.7631 18.0296C17.8585 17.7229 17.853 17.381 17.8415 16.6972L17.8343 16.2726L17.834 16.2511C17.8331 16.2007 17.8326 16.1724 17.833 16.1445C17.8378 15.8248 17.9191 15.5108 18.0702 15.229C18.0851 15.2011 18.1012 15.1733 18.1333 15.1178L18.1334 15.1176C18.1656 15.0619 18.1819 15.034 18.1986 15.0071C18.3674 14.7352 18.5986 14.5079 18.8734 14.344C18.8997 14.3283 18.9271 14.3132 18.9797 14.284L18.9852 14.2809L19.3468 14.0806C19.9484 13.7472 20.2489 13.5806 20.4677 13.3431C20.6613 13.1331 20.8076 12.8841 20.8968 12.6128C20.9977 12.3061 20.9973 11.9622 20.9958 11.2744L20.9945 10.7123C20.993 10.0291 20.9921 9.68744 20.891 9.38281C20.8015 9.11332 20.6556 8.86601 20.4631 8.65725C20.2455 8.42128 19.947 8.25521 19.35 7.92309Z" stroke="#0B0B0B" stroke-width="1.2" stroke-linecap="round" stroke-linejoin="round"/>
</svg>
